<svg width="59" height="12" viewBox="0 0 59 12" fill="none" xmlns="http://www.w3.org/2000/svg">
<path d="M4.24 6.472H1.416V9H0.744V3.416H1.416V5.88H4.24V3.416H4.912V9H4.24V6.472ZM8.48825 9.096C8.12558 9.096 7.79758 9.03467 7.50425 8.912C7.21625 8.784 6.96825 8.6 6.76025 8.36C6.55758 8.11467 6.40025 7.81333 6.28825 7.456C6.17625 7.09333 6.12025 6.67733 6.12025 6.208C6.12025 5.73867 6.17625 5.32533 6.28825 4.968C6.40025 4.61067 6.55758 4.30933 6.76025 4.064C6.96825 3.81867 7.21625 3.63467 7.50425 3.512C7.79758 3.384 8.12558 3.32 8.48825 3.32C8.84558 3.32 9.17092 3.384 9.46425 3.512C9.75758 3.63467 10.0056 3.81867 10.2083 4.064C10.4163 4.30933 10.5763 4.61067 10.6883 4.968C10.8003 5.32533 10.8563 5.73867 10.8563 6.208C10.8563 6.67733 10.8003 7.09333 10.6883 7.456C10.5763 7.81333 10.4163 8.11467 10.2083 8.36C10.0056 8.6 9.75758 8.784 9.46425 8.912C9.17092 9.03467 8.84558 9.096 8.48825 9.096ZM8.48825 8.496C8.72825 8.496 8.94958 8.45333 9.15225 8.368C9.35492 8.28267 9.52825 8.16 9.67225 8C9.82158 7.84 9.93625 7.648 10.0163 7.424C10.0963 7.2 10.1363 6.94933 10.1363 6.672V5.744C10.1363 5.46667 10.0963 5.216 10.0163 4.992C9.93625 4.768 9.82158 4.576 9.67225 4.416C9.52825 4.256 9.35492 4.13333 9.15225 4.048C8.94958 3.96267 8.72825 3.92 8.48825 3.92C8.24825 3.92 8.02692 3.96267 7.82425 4.048C7.62158 4.13333 7.44558 4.256 7.29625 4.416C7.15225 4.576 7.04025 4.768 6.96025 4.992C6.88025 5.216 6.84025 5.46667 6.84025 5.744V6.672C6.84025 6.94933 6.88025 7.2 6.96025 7.424C7.04025 7.648 7.15225 7.84 7.29625 8C7.44558 8.16 7.62158 8.28267 7.82425 8.368C8.02692 8.45333 8.24825 8.496 8.48825 8.496ZM16.4163 4.296H16.3763L15.9043 5.232L14.5683 7.664L13.2323 5.232L12.7603 4.296H12.7203V9H12.0643V3.416H12.9603L14.5603 6.424H14.6003L16.2083 3.416H17.0723V9H16.4163V4.296ZM18.5565 9V3.416H21.9645V4.008H19.2285V5.88H21.8045V6.472H19.2285V8.408H21.9645V9H18.5565ZM24.8472 9V8.44H25.6312V3.976H24.8472V3.416H27.0872V3.976H26.3032V8.44H27.0872V9H24.8472ZM29.6663 5.592L28.9943 4.352H28.9703V9H28.3143V3.416H29.0903L31.1303 6.824L31.8023 8.064H31.8263V3.416H32.4823V9H31.7063L29.6663 5.592ZM37.9492 9.096C37.5865 9.096 37.2585 9.03467 36.9652 8.912C36.6772 8.784 36.4292 8.6 36.2212 8.36C36.0185 8.11467 35.8612 7.81333 35.7492 7.456C35.6372 7.09333 35.5812 6.67733 35.5812 6.208C35.5812 5.73867 35.6372 5.32533 35.7492 4.968C35.8612 4.61067 36.0185 4.30933 36.2212 4.064C36.4292 3.81867 36.6772 3.63467 36.9652 3.512C37.2585 3.384 37.5865 3.32 37.9492 3.32C38.3065 3.32 38.6319 3.384 38.9252 3.512C39.2185 3.63467 39.4665 3.81867 39.6692 4.064C39.8772 4.30933 40.0372 4.61067 40.1492 4.968C40.2612 5.32533 40.3172 5.73867 40.3172 6.208C40.3172 6.67733 40.2612 7.09333 40.1492 7.456C40.0372 7.81333 39.8772 8.11467 39.6692 8.36C39.4665 8.6 39.2185 8.784 38.9252 8.912C38.6319 9.03467 38.3065 9.096 37.9492 9.096ZM37.9492 8.496C38.1892 8.496 38.4105 8.45333 38.6132 8.368C38.8159 8.28267 38.9892 8.16 39.1332 8C39.2825 7.84 39.3972 7.648 39.4772 7.424C39.5572 7.2 39.5972 6.94933 39.5972 6.672V5.744C39.5972 5.46667 39.5572 5.216 39.4772 4.992C39.3972 4.768 39.2825 4.576 39.1332 4.416C38.9892 4.256 38.8159 4.13333 38.6132 4.048C38.4105 3.96267 38.1892 3.92 37.9492 3.92C37.7092 3.92 37.4879 3.96267 37.2852 4.048C37.0825 4.13333 36.9065 4.256 36.7572 4.416C36.6132 4.576 36.5012 4.768 36.4212 4.992C36.3412 5.216 36.3012 5.46667 36.3012 5.744V6.672C36.3012 6.94933 36.3412 7.2 36.4212 7.424C36.5012 7.648 36.6132 7.84 36.7572 8C36.9065 8.16 37.0825 8.28267 37.2852 8.368C37.4879 8.45333 37.7092 8.496 37.9492 8.496ZM42.8773 5.592L42.2053 4.352H42.1813V9H41.5253V3.416H42.3013L44.3413 6.824L45.0133 8.064H45.0373V3.416H45.6933V9H44.9173L42.8773 5.592ZM47.1815 9V3.416H50.5895V4.008H47.8535V5.88H50.4295V6.472H47.8535V8.408H50.5895V9H47.1815Z" fill="black"/>
<rect x="53.8001" y="3.28571" width="1.05003" height="5.71429" rx="0.525017" fill="#DC231E"/>
<rect width="0.91742" height="2.9529" rx="0.45871" transform="matrix(-0.598034 -0.801471 0.828174 -0.560471 52.5486 5.39029)" fill="#DC231E"/>
<path d="M55.1501 3.59606C55.1501 3.23844 55.5829 3.03812 55.8781 3.25906L58.3271 5.09158C58.6632 5.34303 58.4765 5.85714 58.0491 5.85714H55.6001C55.3516 5.85714 55.1501 5.66526 55.1501 5.42857V3.59606Z" fill="#009178"/>
<path fill-rule="evenodd" clip-rule="evenodd" d="M55.1501 6.85714C55.1501 6.46265 55.4859 6.14286 55.9001 6.14286H57.7002C58.1144 6.14286 58.4502 6.46265 58.4502 6.85714V8.28571C58.4502 8.6802 58.1144 9 57.7002 9H55.9001C55.4859 9 55.1501 8.6802 55.1501 8.28571V6.85714ZM55.7501 7C55.7501 6.8422 55.8844 6.71429 56.0501 6.71429H56.3965C56.5622 6.71429 56.6965 6.8422 56.6965 7V7.15462C56.6965 7.31242 56.5622 7.44034 56.3965 7.44034H56.0501C55.8844 7.44034 55.7501 7.31242 55.7501 7.15462V7ZM57.2038 6.71429C57.0381 6.71429 56.9038 6.8422 56.9038 7V7.15462C56.9038 7.31242 57.0381 7.44034 57.2038 7.44034H57.5502C57.7159 7.44034 57.8502 7.31242 57.8502 7.15462V7C57.8502 6.8422 57.7159 6.71429 57.5502 6.71429H57.2038ZM56.9038 7.98824C56.9038 7.83044 57.0381 7.70252 57.2038 7.70252H57.5502C57.7159 7.70252 57.8502 7.83044 57.8502 7.98824V8.14286C57.8502 8.30065 57.7159 8.42857 57.5502 8.42857H57.2038C57.0381 8.42857 56.9038 8.30065 56.9038 8.14286V7.98824ZM56.0501 7.70252C55.8844 7.70252 55.7501 7.83044 55.7501 7.98824V8.14286C55.7501 8.30065 55.8844 8.42857 56.0501 8.42857H56.3965C56.5622 8.42857 56.6965 8.30065 56.6965 8.14286V7.98824C56.6965 7.83044 56.5622 7.70252 56.3965 7.70252H56.0501Z" fill="#009178"/>
</svg>
