<svg width="20" height="18" viewBox="0 0 20 18" fill="none" xmlns="http://www.w3.org/2000/svg">
<rect x="5.40021" y="0.857147" width="3.1501" height="17.1429" rx="1.57505" fill="#DC231E"/>
<rect width="2.75226" height="8.8587" rx="1.37613" transform="matrix(-0.598034 -0.801471 0.828174 -0.560471 1.64594 7.1709)" fill="#DC231E"/>
<path d="M9.45032 1.78817C9.45032 0.715328 10.7486 0.114363 11.6344 0.777187L18.9814 6.27473C19.9895 7.0291 19.4294 8.57143 18.1473 8.57143H10.8004C10.0548 8.57143 9.45032 7.99579 9.45032 7.28571V1.78817Z" fill="#009178"/>
<path fill-rule="evenodd" clip-rule="evenodd" d="M9.45032 11.5714C9.45032 10.388 10.4577 9.42857 11.7004 9.42857H17.1006C18.3432 9.42857 19.3506 10.388 19.3506 11.5714V15.8571C19.3506 17.0406 18.3432 18 17.1006 18H11.7004C10.4577 18 9.45032 17.0406 9.45032 15.8571V11.5714ZM11.2504 12C11.2504 11.5266 11.6533 11.1429 12.1504 11.1429H13.1895C13.6866 11.1429 14.0895 11.5266 14.0895 12V12.4639C14.0895 12.9373 13.6866 13.321 13.1895 13.321H12.1504C11.6533 13.321 11.2504 12.9373 11.2504 12.4639V12ZM15.6115 11.1429C15.1144 11.1429 14.7114 11.5266 14.7114 12V12.4639C14.7114 12.9373 15.1144 13.321 15.6115 13.321H16.6505C17.1476 13.321 17.5506 12.9373 17.5506 12.4639V12C17.5506 11.5266 17.1476 11.1429 16.6505 11.1429H15.6115ZM14.7114 14.9647C14.7114 14.4913 15.1144 14.1076 15.6115 14.1076H16.6505C17.1476 14.1076 17.5506 14.4913 17.5506 14.9647V15.4286C17.5506 15.902 17.1476 16.2857 16.6505 16.2857H15.6115C15.1144 16.2857 14.7114 15.902 14.7114 15.4286V14.9647ZM12.1504 14.1076C11.6533 14.1076 11.2504 14.4913 11.2504 14.9647V15.4286C11.2504 15.902 11.6533 16.2857 12.1504 16.2857H13.1895C13.6866 16.2857 14.0895 15.902 14.0895 15.4286V14.9647C14.0895 14.4913 13.6866 14.1076 13.1895 14.1076H12.1504Z" fill="#009178"/>
</svg>
