<svg width="10" height="10" viewBox="0 0 10 10" fill="none" xmlns="http://www.w3.org/2000/svg">
<path d="M4.79004 6.0525C5.37132 6.0525 5.84253 5.58128 5.84253 5.00001C5.84253 4.41873 5.37132 3.94751 4.79004 3.94751C4.20877 3.94751 3.73755 4.41873 3.73755 5.00001C3.73755 5.58128 4.20877 6.0525 4.79004 6.0525Z" fill="#A2A2A2" stroke="#9C9C9C"/>
<path d="M1.31632 1.77938L1.44788 1.55099C1.39623 1.52113 1.33596 1.5097 1.27696 1.5186C1.21797 1.52749 1.16374 1.55617 1.12319 1.59993L1.31632 1.77938ZM0.264355 3.6023L0.0128094 3.52441C-0.00469885 3.58136 -0.00236412 3.64256 0.0194317 3.698C0.0412275 3.75345 0.0811942 3.79986 0.132794 3.82964L0.264355 3.6023ZM0.263303 6.39719L0.131741 6.16933C0.0800305 6.19913 0.0399876 6.24562 0.018185 6.30118C-0.00361751 6.35674 -0.00588419 6.41806 0.011757 6.47508L0.263303 6.39719ZM1.31579 8.22011L1.12266 8.39903C1.16322 8.44279 1.21744 8.47147 1.27644 8.48037C1.33544 8.48926 1.3957 8.47784 1.44736 8.44797L1.31579 8.22011ZM3.73653 9.61729H3.4734C3.47337 9.67704 3.49368 9.73502 3.53098 9.78169C3.56828 9.82837 3.62036 9.86095 3.67864 9.8741L3.73653 9.61729ZM5.84204 9.61834L5.90045 9.87515C5.95864 9.8619 6.01059 9.82927 6.04779 9.78261C6.08499 9.73594 6.10522 9.67802 6.10516 9.61834H5.84204ZM8.2633 8.22063L8.13174 8.4485C8.18339 8.47836 8.24366 8.48978 8.30265 8.48089C8.36165 8.472 8.41587 8.44332 8.45643 8.39956L8.2633 8.22063ZM9.31474 6.39666L9.56628 6.47455C9.58379 6.4176 9.58145 6.3564 9.55966 6.30096C9.53786 6.24551 9.4979 6.1991 9.4463 6.16933L9.31474 6.39666ZM9.31579 3.60177L9.44735 3.82964C9.49906 3.79984 9.5391 3.75334 9.56091 3.69778C9.58271 3.64222 9.58497 3.5809 9.56733 3.52389L9.31579 3.60177ZM8.2633 1.77833L8.45643 1.5994C8.41587 1.55564 8.36165 1.52696 8.30265 1.51807C8.24366 1.50918 8.18339 1.5206 8.13174 1.55046L8.2633 1.77833ZM5.84256 0.382198H6.10569C6.10563 0.322612 6.08534 0.264812 6.04815 0.218256C6.01097 0.1717 5.95908 0.139144 5.90098 0.125916L5.84256 0.382198ZM3.73758 0.381145L3.67917 0.124337C3.62088 0.137481 3.56881 0.170071 3.53151 0.216745C3.49421 0.263418 3.4739 0.321397 3.47393 0.381145H3.73758ZM0.515901 3.68018C0.713344 3.03875 1.05275 2.45004 1.50893 1.95778L1.12319 1.59993C0.613181 2.15006 0.233659 2.80749 0.0128094 3.52441L0.515901 3.68018ZM0.915848 7.23655C0.748606 6.94686 0.61428 6.63938 0.515375 6.31983L0.0122832 6.4756C0.123146 6.83259 0.273532 7.17607 0.460645 7.49968L0.915848 7.23655ZM1.50945 8.04171C1.28239 7.79625 1.08294 7.52619 0.915848 7.23655L0.460645 7.49968C0.647273 7.82339 0.869501 8.12522 1.12319 8.39956L1.50945 8.04171ZM5.78415 9.36259C5.12976 9.51157 4.45022 9.51121 3.79599 9.36154L3.67917 9.8741C4.41026 10.0414 5.16965 10.042 5.90098 9.87568L5.78415 9.36259ZM9.06424 6.31983C8.8668 6.96126 8.52739 7.54997 8.07122 8.04224L8.45695 8.40008C8.96695 7.84994 9.34647 7.19199 9.56733 6.47508L9.06424 6.31983ZM8.6643 2.76346C8.8348 3.05974 8.96794 3.36707 9.0653 3.68018L9.56786 3.52441C9.45704 3.16741 9.30665 2.82392 9.1195 2.50034L8.6643 2.76346ZM8.07069 1.9583C8.29792 2.20362 8.49739 2.4737 8.6643 2.76346L9.1195 2.50034C8.93288 2.17662 8.71066 1.87478 8.45695 1.60046L8.07069 1.9583ZM3.79599 0.637427C4.45038 0.488449 5.12992 0.488808 5.78415 0.638479L5.90098 0.125916C5.16989 -0.0414373 4.41049 -0.0419769 3.67917 0.124337L3.79599 0.637427ZM4.0007 1.35417V0.380619H3.47446V1.35417H4.0007ZM2.2904 2.03724L1.44788 1.55099L1.18476 2.00619L2.02675 2.49297L2.2904 2.03724ZM0.974787 5.68307L0.131741 6.16933L0.39539 6.62506L1.23738 6.1388L0.974787 5.68307ZM1.23791 3.86016L0.395917 3.37443L0.132794 3.83016L0.974787 4.31589L1.23791 3.86016ZM4.0007 9.61729V8.64531H3.47446V9.61729H4.0007ZM2.02728 7.50599L1.18476 7.99224L1.44788 8.44797L2.28988 7.96172L2.02728 7.50599ZM8.39538 7.99277L7.55286 7.50599L7.28974 7.96225L8.13174 8.4485L8.39538 7.99277ZM6.10569 9.61887V8.64531H5.57944V9.61887H6.10569ZM9.18475 3.37391L8.34223 3.86016L8.60536 4.31589L9.44735 3.82964L9.18475 3.37391ZM9.44682 6.1688L8.60536 5.68413L8.34223 6.13986L9.18423 6.62558L9.44682 6.1688ZM6.10569 1.35417V0.382198H5.57944V1.35417H6.10569ZM8.13226 1.55099L7.28974 2.03777L7.55286 2.4935L8.39538 2.00672L8.13226 1.55099ZM5.57944 1.35417C5.57944 2.36667 6.67561 2.99975 7.55286 2.4935L7.28974 2.03777C7.1697 2.10707 7.03354 2.14355 6.89493 2.14352C6.75632 2.1435 6.62017 2.10698 6.50015 2.03764C6.38014 1.9683 6.2805 1.86858 6.21125 1.74851C6.14201 1.62844 6.1056 1.49278 6.10569 1.35417H5.57944ZM8.34223 3.86068C7.46498 4.36693 7.46498 5.63308 8.34223 6.13933L8.60536 5.6836C8.48537 5.61432 8.38573 5.51467 8.31645 5.39467C8.24718 5.27468 8.21071 5.13856 8.21071 5.00001C8.21071 4.86145 8.24718 4.72534 8.31645 4.60534C8.38573 4.48535 8.48537 4.3857 8.60536 4.31641L8.34223 3.86068ZM7.55286 7.50652C6.67561 7.00027 5.57944 7.63229 5.57944 8.64531H6.10569C6.10569 8.50675 6.14217 8.37116 6.21145 8.25116C6.28073 8.13117 6.38038 8.03152 6.50038 7.96224C6.62038 7.89296 6.7565 7.85649 6.89506 7.85649C7.03362 7.85649 7.16974 7.89297 7.28974 7.96225L7.55286 7.50652ZM4.0007 8.64531C4.0007 7.63282 2.90453 7.00027 2.02728 7.50652L2.2904 7.96225C2.41044 7.89294 2.54661 7.85647 2.68521 7.85649C2.82382 7.85651 2.95998 7.89303 3.07999 7.96237C3.20001 8.03171 3.29965 8.13144 3.36889 8.2515C3.43814 8.37157 3.47455 8.50776 3.47446 8.64637L4.0007 8.64531ZM1.23791 6.13933C2.11516 5.63308 2.11516 4.36693 1.23791 3.86068L0.974787 4.31641C1.50103 4.62006 1.50103 5.3789 0.974787 5.68307L1.23791 6.13933ZM3.47446 1.35417C3.47436 1.49269 3.43782 1.62874 3.3685 1.74867C3.29918 1.86859 3.19952 1.96816 3.07954 2.03738C2.95955 2.1066 2.82347 2.14302 2.68495 2.143C2.54643 2.14297 2.41036 2.1065 2.2904 2.03724L2.02728 2.4935C2.90453 2.99975 4.0007 2.3672 4.0007 1.35417H3.47446Z" fill="#A2A2A2"/>
</svg>
