<svg width="16" height="16" viewBox="0 0 16 16" fill="none" xmlns="http://www.w3.org/2000/svg">
<path d="M10 8.66666V3.33333C10 2.8029 9.78931 2.29419 9.41423 1.91911C9.03916 1.54404 8.53045 1.33333 8.00002 1.33333C7.46959 1.33333 6.96088 1.54404 6.58581 1.91911C6.21073 2.29419 6.00002 2.8029 6.00002 3.33333V8.66666C5.44033 9.08643 5.02691 9.67165 4.81831 10.3394C4.60971 11.0072 4.61651 11.7237 4.83774 12.3874C5.05898 13.0511 5.48343 13.6284 6.05099 14.0375C6.61854 14.4465 7.30041 14.6667 8.00002 14.6667C8.69963 14.6667 9.3815 14.4465 9.94905 14.0375C10.5166 13.6284 10.9411 13.0511 11.1623 12.3874C11.3835 11.7237 11.3903 11.0072 11.1817 10.3394C10.9731 9.67165 10.5597 9.08643 10 8.66666ZM8.00002 2.66666C8.17683 2.66666 8.3464 2.7369 8.47142 2.86192C8.59645 2.98695 8.66669 3.15652 8.66669 3.33333V5.33333H7.33335V3.33333C7.33335 3.15652 7.40359 2.98695 7.52862 2.86192C7.65364 2.7369 7.82321 2.66666 8.00002 2.66666Z" fill="black"/>
</svg>
