<svg width="12" height="12" viewBox="0 0 12 12" fill="none" xmlns="http://www.w3.org/2000/svg">
<g clip-path="url(#clip0_37_14)">
<path d="M6 0.75C6.09946 0.75 6.19484 0.789509 6.26517 0.859835C6.33549 0.930161 6.375 1.02554 6.375 1.125V1.875C6.375 1.97446 6.33549 2.06984 6.26517 2.14016C6.19484 2.21049 6.09946 2.25 6 2.25C5.90054 2.25 5.80516 2.21049 5.73484 2.14016C5.66451 2.06984 5.625 1.97446 5.625 1.875V1.125C5.625 1.02554 5.66451 0.930161 5.73484 0.859835C5.80516 0.789509 5.90054 0.75 6 0.75ZM6 8.625C6.69619 8.625 7.36387 8.34844 7.85616 7.85616C8.34844 7.36387 8.625 6.69619 8.625 6C8.625 5.30381 8.34844 4.63613 7.85616 4.14384C7.36387 3.65156 6.69619 3.375 6 3.375C5.30381 3.375 4.63613 3.65156 4.14384 4.14384C3.65156 4.63613 3.375 5.30381 3.375 6C3.375 6.69619 3.65156 7.36387 4.14384 7.85616C4.63613 8.34844 5.30381 8.625 6 8.625ZM6 7.875C5.50272 7.875 5.02581 7.67746 4.67417 7.32583C4.32254 6.97419 4.125 6.49728 4.125 6C4.125 5.50272 4.32254 5.02581 4.67417 4.67417C5.02581 4.32254 5.50272 4.125 6 4.125C6.49728 4.125 6.97419 4.32254 7.32583 4.67417C7.67746 5.02581 7.875 5.50272 7.875 6C7.875 6.49728 7.67746 6.97419 7.32583 7.32583C6.97419 7.67746 6.49728 7.875 6 7.875ZM10.875 6.375C10.9745 6.375 11.0698 6.33549 11.1402 6.26517C11.2105 6.19484 11.25 6.09946 11.25 6C11.25 5.90054 11.2105 5.80516 11.1402 5.73484C11.0698 5.66451 10.9745 5.625 10.875 5.625H10.125C10.0255 5.625 9.93016 5.66451 9.85983 5.73484C9.78951 5.80516 9.75 5.90054 9.75 6C9.75 6.09946 9.78951 6.19484 9.85983 6.26517C9.93016 6.33549 10.0255 6.375 10.125 6.375H10.875ZM6 9.75C6.09946 9.75 6.19484 9.78951 6.26517 9.85983C6.33549 9.93016 6.375 10.0255 6.375 10.125V10.875C6.375 10.9745 6.33549 11.0698 6.26517 11.1402C6.19484 11.2105 6.09946 11.25 6 11.25C5.90054 11.25 5.80516 11.2105 5.73484 11.1402C5.66451 11.0698 5.625 10.9745 5.625 10.875V10.125C5.625 10.0255 5.66451 9.93016 5.73484 9.85983C5.80516 9.78951 5.90054 9.75 6 9.75ZM1.875 6.375C1.97446 6.375 2.06984 6.33549 2.14016 6.26517C2.21049 6.19484 2.25 6.09946 2.25 6C2.25 5.90054 2.21049 5.80516 2.14016 5.73484C2.06984 5.66451 1.97446 5.625 1.875 5.625H1.125C1.02554 5.625 0.930161 5.66451 0.859835 5.73484C0.789509 5.80516 0.75 5.90054 0.75 6C0.75 6.09946 0.789509 6.19484 0.859835 6.26517C0.930161 6.33549 1.02554 6.375 1.125 6.375H1.875ZM1.98525 1.98525C2.05557 1.91495 2.15094 1.87546 2.25038 1.87546C2.34981 1.87546 2.44518 1.91495 2.5155 1.98525L3.2655 2.73525C3.30132 2.76984 3.32988 2.81122 3.34954 2.85697C3.36919 2.90272 3.37954 2.95193 3.37997 3.00172C3.3804 3.05152 3.37091 3.1009 3.35206 3.14698C3.3332 3.19307 3.30536 3.23494 3.27015 3.27015C3.23494 3.30536 3.19307 3.3332 3.14698 3.35206C3.1009 3.37091 3.05152 3.3804 3.00172 3.37997C2.95193 3.37954 2.90272 3.36919 2.85697 3.34954C2.81122 3.32988 2.76984 3.30132 2.73525 3.2655L1.98525 2.5155C1.91495 2.44518 1.87546 2.34981 1.87546 2.25038C1.87546 2.15094 1.91495 2.05557 1.98525 1.98525ZM2.5155 10.0155C2.44477 10.0838 2.35005 10.1216 2.25172 10.1208C2.1534 10.1199 2.05935 10.0805 1.98982 10.0109C1.92029 9.9414 1.88085 9.84735 1.88 9.74903C1.87914 9.6507 1.91694 9.55598 1.98525 9.48525L2.73525 8.73525C2.76984 8.69943 2.81122 8.67087 2.85697 8.65121C2.90272 8.63156 2.95193 8.62121 3.00172 8.62078C3.05152 8.62035 3.1009 8.62984 3.14698 8.64869C3.19307 8.66755 3.23494 8.69539 3.27015 8.7306C3.30536 8.76581 3.3332 8.80768 3.35206 8.85377C3.37091 8.89985 3.3804 8.94923 3.37997 8.99903C3.37954 9.04882 3.36919 9.09803 3.34954 9.14378C3.32988 9.18953 3.30132 9.23091 3.2655 9.2655L2.5155 10.0155ZM10.0155 1.98525C9.94518 1.91495 9.84981 1.87546 9.75037 1.87546C9.65094 1.87546 9.55557 1.91495 9.48525 1.98525L8.73525 2.73525C8.66694 2.80598 8.62914 2.9007 8.63 2.99903C8.63085 3.09735 8.67029 3.1914 8.73982 3.26093C8.80935 3.33046 8.9034 3.3699 9.00172 3.37075C9.10005 3.37161 9.19477 3.33381 9.2655 3.2655L10.0155 2.5155C10.0858 2.44518 10.1253 2.34981 10.1253 2.25038C10.1253 2.15094 10.0858 2.05557 10.0155 1.98525ZM9.48525 10.0155C9.55598 10.0838 9.6507 10.1216 9.74903 10.1208C9.84735 10.1199 9.9414 10.0805 10.0109 10.0109C10.0805 9.9414 10.1199 9.84735 10.1208 9.74903C10.1216 9.6507 10.0838 9.55598 10.0155 9.48525L9.2655 8.73525C9.23091 8.69943 9.18953 8.67087 9.14378 8.65121C9.09803 8.63156 9.04882 8.62121 8.99903 8.62078C8.94923 8.62035 8.89985 8.62984 8.85377 8.64869C8.80768 8.66755 8.76581 8.69539 8.7306 8.7306C8.69539 8.76581 8.66755 8.80768 8.64869 8.85377C8.62984 8.89985 8.62035 8.94923 8.62078 8.99903C8.62121 9.04882 8.63156 9.09803 8.65121 9.14378C8.67087 9.18953 8.69943 9.23091 8.73525 9.2655L9.48525 10.0155Z" fill="black"/>
</g>
<defs>
<clipPath id="clip0_37_14">
<rect width="12" height="12" fill="white"/>
</clipPath>
</defs>
</svg>
